<svg xmlns="http://www.w3.org/2000/svg" version="1.1" viewBox="-5.0 -5.0 110.0 110.0">
 <g>
  <path d="m51.562 39.062c0 2.082-3.125 2.082-3.125 0s3.125-2.082 3.125 0"/>
  <path d="m50 31.25c-4.3086 0-7.8125 3.5039-7.8125 7.8125s3.5039 7.8125 7.8125 7.8125 7.8125-3.5039 7.8125-7.8125-3.5039-7.8125-7.8125-7.8125zm0 12.5c-2.5859 0-4.6875-2.1016-4.6875-4.6875 0-2.582 2.1016-4.6875 4.6875-4.6875 2.582 0 4.6875 2.1016 4.6875 4.6875 0 2.582-2.1016 4.6875-4.6875 4.6875z"/>
  <path d="m92.188 23.438h-84.375c-4.3086 0-7.8125 3.5039-7.8125 7.8125v15.625c0 4.3086 3.5039 7.8125 7.8125 7.8125h84.375c4.3086 0 7.8125-3.5039 7.8125-7.8125v-15.625c0-4.3086-3.5039-7.8125-7.8125-7.8125zm-68.75 17.188c0 0.86328-0.69922 1.5625-1.5625 1.5625s-1.5625-0.69922-1.5625-1.5625v-3.125c0-0.86328 0.69922-1.5625 1.5625-1.5625s1.5625 0.69922 1.5625 1.5625zm9.375 0c0 0.86328-0.69922 1.5625-1.5625 1.5625s-1.5625-0.69922-1.5625-1.5625v-3.125c0-0.86328 0.69922-1.5625 1.5625-1.5625s1.5625 0.69922 1.5625 1.5625zm17.188 9.375c-6.0312 0-10.938-4.9062-10.938-10.938s4.9062-10.938 10.938-10.938 10.938 4.9062 10.938 10.938-4.9062 10.938-10.938 10.938zm20.312-9.375c0 0.86328-0.69922 1.5625-1.5625 1.5625s-1.5625-0.69922-1.5625-1.5625v-3.125c0-0.86328 0.69922-1.5625 1.5625-1.5625s1.5625 0.69922 1.5625 1.5625zm9.375 0c0 0.86328-0.69922 1.5625-1.5625 1.5625s-1.5625-0.69922-1.5625-1.5625v-3.125c0-0.86328 0.69922-1.5625 1.5625-1.5625s1.5625 0.69922 1.5625 1.5625z"/>
  <path d="m60.938 65.625c0 0.86328-0.69922 1.5625-1.5625 1.5625h-18.75c-0.86328 0-1.5625-0.69922-1.5625-1.5625v-7.8125h-7.8125v10.938c0 4.3086 3.5039 7.8125 7.8125 7.8125h21.875c4.3086 0 7.8125-3.5039 7.8125-7.8125v-10.938h-7.8125z"/>
  <path d="m42.188 57.812h15.625v6.25h-15.625z"/>
 </g>
</svg>