<svg xmlns="http://www.w3.org/2000/svg" version="1.1" viewBox="-5.0 -5.0 110.0 110.0">
 <path d="m100 50c0 27.613-22.387 50-50 50s-50-22.387-50-50 22.387-50 50-50 50 22.387 50 50zm-6.7266 8.0039c-3.7617 20.48-21.707 35.996-43.273 35.996s-39.512-15.516-43.273-35.996c2.2031 2.0703 4.9844 3.9609 8.2344 5.625l5.8203 9.8047c0.59766 1.0078 1.9297 1.2891 2.8828 0.60938l7.0352-5.0156c5.9219 1.2695 12.449 1.9727 19.301 1.9727 6.7578 0 13.199-0.68359 19.055-1.9219l6.9648 4.9648c0.95312 0.67969 2.2812 0.39844 2.8789-0.60938l5.6836-9.5781c3.4492-1.7148 6.3867-3.6875 8.6914-5.8516zm0.72266-7.4258c-1.6094 3.3008-5.1992 6.6992-11.137 9.668-8.2031 4.1016-19.816 6.7539-32.859 6.7539s-24.656-2.6523-32.859-6.7539c-5.9375-2.9688-9.5273-6.3672-11.137-9.668-0.003906-0.19141-0.003906-0.38281-0.003906-0.57812 0-24.301 19.699-44 44-44s44 19.699 44 44c0 0.19531 0 0.38672-0.003906 0.57812z" fill-rule="evenodd"/>
</svg>