<svg xmlns="http://www.w3.org/2000/svg" viewBox="0 0 64 64" x="0px" y="0px"><g data-name="dc motor-electronics"><path d="M58,37H57V27h1a4,4,0,0,0,0-8H57a5,5,0,0,0-5-5H18a5,5,0,0,0-5,5v7H10a1,1,0,0,0-1,1v1H4a2.006,2.006,0,0,0-2,2v4a2.006,2.006,0,0,0,2,2H9v1a1,1,0,0,0,1,1h3v7a5,5,0,0,0,5,5H52a5,5,0,0,0,5-5h1a4,4,0,0,0,0-8ZM9,34H4V30H9Zm4,2H11V28h2Zm7,12H18a3.009,3.009,0,0,1-3-3V19a3.009,3.009,0,0,1,3-3h2Zm24,0H22V16H44Zm5,0H46V16h3Zm2-32h1a3.009,3.009,0,0,1,3,3H51Zm0,5h7a2,2,0,0,1,0,4H51Zm0,6h4V37H51Zm1,21H51V45h4A3.009,3.009,0,0,1,52,48Zm6-5H51V39h7a2,2,0,0,1,0,4Z"/><rect x="56" y="22" width="2" height="2"/><rect x="56" y="40" width="2" height="2"/><path d="M41.124,23.008l-16-2A1,1,0,0,0,24,22v6a1,1,0,0,0,1,1H41a1,1,0,0,0,1-1V24A1,1,0,0,0,41.124,23.008ZM40,27H26V23.133l14,1.75Z"/><path d="M41,35H25a1,1,0,0,0-1,1v6a1,1,0,0,0,1,1,.861.861,0,0,0,.124-.008l16-2A1,1,0,0,0,42,40V36A1,1,0,0,0,41,35Zm-1,4.117-14,1.75V37H40Z"/></g></svg>