<svg xmlns:inkscape="http://www.inkscape.org/namespaces/inkscape" xmlns:sodipodi="http://sodipodi.sourceforge.net/DTD/sodipodi-0.dtd" xmlns="http://www.w3.org/2000/svg" xmlns:svg="http://www.w3.org/2000/svg" viewBox="0 0 48 48" version="1.1" xml:space="preserve" x="0px" y="0px"><g><path style="color:#000000;" d="M 27.449219 5.4667969 C 27.315485 5.4700869 27.183353 5.4783674 27.052734 5.4902344 C 26.007788 5.5851752 25.068407 5.9589344 24.337891 6.6894531 L 22.539062 8.4882812 C 22.552792 8.4906712 22.566318 8.4917006 22.580078 8.4941406 C 24.051282 8.754855 25.641506 9.3065421 26.839844 9.9609375 C 27.081778 10.093261 27.170907 10.396477 27.039062 10.638672 C 26.906741 10.880606 26.603523 10.969734 26.361328 10.837891 C 25.28565 10.250475 23.757664 9.7180017 22.40625 9.4785156 C 22.144809 9.4321838 21.893494 9.4002556 21.650391 9.3769531 L 19.722656 11.304688 C 19.917173 11.319606 20.11171 11.341041 20.306641 11.369141 C 22.211232 11.643699 24.15515 12.49595 25.851562 13.482422 C 26.134448 13.647677 26.184651 14.035781 25.953125 14.267578 L 16.773438 23.447266 C 16.612457 23.608749 16.362619 23.64088 16.166016 23.525391 C 13.50877 21.949118 11.19496 21.398101 9.6269531 21.59375 C 8.8429489 21.69157 8.2533338 21.965016 7.8496094 22.365234 C 7.4583146 22.753135 7.2240332 23.269381 7.1777344 23.958984 C 7.5748692 23.803269 8.0034497 23.702229 8.4609375 23.662109 C 9.472071 23.573439 10.61022 23.755469 11.787109 24.154297 C 14.140899 24.951948 16.73361 26.632126 19.076172 29.013672 C 21.418735 31.395212 23.072138 34.032768 23.855469 36.421875 C 24.378805 38.018019 24.517878 39.536376 24.15625 40.775391 C 24.997586 40.700541 25.604833 40.232006 26.03125 39.492188 C 26.514584 38.653607 26.705341 37.457267 26.490234 36.238281 C 26.061559 33.809001 23.669876 30.044877 20.8125 27.1875 C 20.617316 26.992235 20.617316 26.675734 20.8125 26.480469 L 30.009766 17.283203 C 30.195817 17.096401 30.494951 17.086151 30.693359 17.259766 C 33.211761 19.473311 35.460857 22.129086 36.490234 24.927734 C 36.846492 25.896318 37.088526 26.858243 37.191406 27.777344 L 39.197266 25.771484 C 39.166996 25.529548 39.125606 25.27663 39.066406 25.015625 C 38.788026 23.788326 38.201549 22.421423 37.574219 21.511719 C 37.417394 21.28463 37.474216 20.973423 37.701172 20.816406 C 37.773602 20.766826 37.857802 20.737189 37.945312 20.730469 C 37.989002 20.726669 38.033002 20.728628 38.076172 20.736328 C 38.206103 20.760308 38.321261 20.834738 38.396484 20.943359 C 39.120238 21.992884 39.732195 23.433441 40.041016 24.794922 C 40.049516 24.832322 40.05448 24.868992 40.0625 24.90625 L 41.324219 23.644531 C 42.780441 22.188606 42.805234 19.898112 42.037109 17.59375 C 41.268991 15.289352 39.678951 12.805905 37.435547 10.5625 C 35.192137 8.3190965 32.709426 6.7291297 30.402344 5.9628906 C 29.392993 5.6276615 28.385349 5.4437418 27.449219 5.4667969 z M 18.921875 12.277344 C 18.167671 12.295024 17.465688 12.452154 16.832031 12.779297 L 8.8945312 20.716797 C 9.0907184 20.667917 9.2933995 20.627827 9.5039062 20.601562 C 11.319331 20.375046 13.680492 21.015482 16.306641 22.5 L 24.751953 14.054688 C 23.274594 13.255751 21.672837 12.576877 20.164062 12.359375 C 19.737131 12.297825 19.322229 12.267954 18.921875 12.277344 z M 31.214844 12.322266 C 31.302114 12.333126 31.384982 12.366802 31.455078 12.419922 C 33.000103 13.580915 34.419086 14.999896 35.580078 16.544922 C 35.746649 16.765935 35.702003 17.080215 35.480469 17.246094 C 35.259792 17.411333 34.947005 17.366774 34.78125 17.146484 C 33.678921 15.67953 32.32047 14.321081 30.853516 13.21875 C 30.633226 13.052995 30.588667 12.740208 30.753906 12.519531 C 30.833596 12.413139 30.952372 12.342858 31.083984 12.324219 C 31.127334 12.317819 31.171324 12.317266 31.214844 12.322266 z M 30.34375 18.363281 L 21.835938 26.871094 C 24.641034 29.774913 26.990858 33.323062 27.474609 36.064453 C 27.660762 37.119354 27.598244 38.16804 27.298828 39.083984 C 30.104371 36.26986 33.195416 33.202974 35.988281 30.386719 C 36.847422 29.527578 36.272593 27.230568 35.552734 25.273438 C 34.638056 22.786627 32.567443 20.42198 30.34375 18.363281 z M 8.9042969 24.640625 C 8.7966758 24.642325 8.6909456 24.64782 8.5878906 24.65625 C 7.7634509 24.72334 7.0884412 25.003198 6.609375 25.490234 C 5.6512424 26.464311 5.5038316 28.248947 6.2246094 30.447266 C 6.8367367 32.314203 8.0681249 34.422838 9.8007812 36.416016 L 8.3085938 37.916016 C 7.9181708 38.306522 7.9181708 38.939572 8.3085938 39.330078 C 8.6991004 39.720502 9.3321496 39.720502 9.7226562 39.330078 L 11.177734 37.867188 C 12.837616 39.472882 14.607276 40.710535 16.265625 41.503906 C 16.712812 41.707724 17.158546 41.889436 17.595703 42.035156 C 18.612146 42.373973 19.620451 42.546833 20.560547 42.521484 C 21.375787 42.451294 22.044324 42.172574 22.519531 41.689453 C 23.477664 40.715375 23.627026 38.932694 22.90625 36.734375 C 22.185474 34.536056 20.611112 32.000075 18.363281 29.714844 C 16.115452 27.429607 13.623386 25.833054 11.464844 25.101562 C 10.520481 24.781544 9.6576438 24.628752 8.9042969 24.640625 z M 9.5039062 26.681641 A 0.5 0.5 0 0 1 9.8574219 26.828125 A 0.5 0.5 0 0 1 9.8574219 27.535156 C 9.6576993 27.734879 9.5526808 28.158242 9.7109375 28.869141 C 9.8691942 29.580037 10.286124 30.51133 10.953125 31.537109 A 0.5 0.5 0 0 1 10.806641 32.228516 A 0.5 0.5 0 0 1 10.115234 32.082031 C 9.4028242 30.986416 8.9318135 29.972841 8.734375 29.085938 C 8.5369365 28.199033 8.6081323 27.370382 9.1503906 26.828125 A 0.5 0.5 0 0 1 9.5039062 26.681641 z M 14.158203 27.712891 A 0.5 0.5 0 0 1 14.404297 27.792969 C 16.031115 28.850791 17.678089 30.348713 19.017578 31.980469 A 0.5 0.5 0 0 1 18.949219 32.683594 A 0.5 0.5 0 0 1 18.244141 32.613281 C 16.970132 31.061297 15.382193 29.621057 13.859375 28.630859 A 0.5 0.5 0 0 1 13.710938 27.939453 A 0.5 0.5 0 0 1 14.027344 27.722656 A 0.5 0.5 0 0 1 14.158203 27.712891 z M 13.984375 30.347656 C 14.025298 30.347688 14.064608 30.348496 14.101562 30.351562 C 14.39721 30.376113 14.629149 30.463347 14.855469 30.570312 C 15.308106 30.78425 15.735435 31.104578 16.148438 31.517578 C 16.561439 31.930581 16.883719 32.357907 17.097656 32.810547 C 17.204625 33.036867 17.289903 33.270761 17.314453 33.566406 C 17.339004 33.862054 17.277701 34.298469 16.949219 34.626953 C 16.620734 34.955437 16.184319 35.016735 15.888672 34.992188 C 15.593024 34.967637 15.361083 34.882359 15.134766 34.775391 C 14.945494 34.685933 14.761301 34.573323 14.580078 34.447266 L 15.560547 33.460938 C 15.699946 33.321539 15.53496 32.826053 15.144531 32.435547 C 14.754025 32.045124 14.339267 31.854133 14.146484 32.046875 L 13.175781 33.021484 C 13.068782 32.861446 12.971192 32.699532 12.892578 32.533203 C 12.78561 32.306884 12.698378 32.074945 12.673828 31.779297 C 12.649276 31.483649 12.710581 31.045281 13.039062 30.716797 C 13.326484 30.429373 13.697916 30.347434 13.984375 30.347656 z M 20.675781 34.871094 A 0.5 0.5 0 0 1 20.802734 34.900391 A 0.5 0.5 0 0 1 21.083984 35.160156 C 21.560423 36.189291 21.777085 37.082334 21.658203 37.84375 C 21.539322 38.605166 20.953265 39.213023 20.166016 39.335938 A 0.5 0.5 0 0 1 19.59375 38.917969 A 0.5 0.5 0 0 1 20.011719 38.347656 C 20.464288 38.276995 20.601712 38.126334 20.669922 37.689453 C 20.738133 37.252575 20.603883 36.504801 20.175781 35.580078 A 0.5 0.5 0 0 1 20.419922 34.916016 A 0.5 0.5 0 0 1 20.675781 34.871094 z M 13.964844 35.064453 C 14.781877 35.826952 15.634475 36.508208 16.462891 37.046875 A 0.5 0.5 0 0 1 16.611328 37.738281 A 0.5 0.5 0 0 1 15.917969 37.884766 C 15.024945 37.304085 14.12229 36.580937 13.259766 35.773438 L 13.964844 35.064453 z " fill="#000000" fill-opacity="1" stroke-linecap="round" stroke-linejoin="round"/></g></svg>