<svg xmlns="http://www.w3.org/2000/svg" viewBox="0 0 128 128" x="0px" y="0px"><g><g data-name="Solid"><path d="M121.706,116.239a.753.753,0,0,0,.148-.986L99.679,80.547A37.394,37.394,0,0,0,80.015,65.58l-2.292-1.05a13.761,13.761,0,0,1-9.357,12.5L106.735,115.4A11.232,11.232,0,0,0,121.706,116.239Z"/><circle cx="64" cy="64" r="3.25"/><path d="M51.75,64A12.25,12.25,0,1,0,64,51.75,12.263,12.263,0,0,0,51.75,64ZM64,59.25A4.75,4.75,0,1,1,59.25,64,4.756,4.756,0,0,1,64,59.25Z"/><path d="M6.294,11.761a.753.753,0,0,0-.148.986L28.321,47.453A37.394,37.394,0,0,0,47.985,62.42l2.292,1.05a13.761,13.761,0,0,1,9.357-12.5L21.265,12.6A11.234,11.234,0,0,0,6.294,11.761Z"/><path d="M64,15.25a48.757,48.757,0,0,0-23.959,6.3.749.749,0,1,0,.738,1.3,47.239,47.239,0,0,1,56.69,7.793.75.75,0,1,0,1.062-1.058A48.419,48.419,0,0,0,64,15.25Z"/><path d="M29.471,97.351a.748.748,0,0,0,0,1.06,48.733,48.733,0,0,0,58.49,8.039.749.749,0,1,0-.738-1.3,47.239,47.239,0,0,1-56.69-7.793A.749.749,0,0,0,29.471,97.351Z"/><path d="M81.885,35.093a.75.75,0,0,0-.262-1.028,34.675,34.675,0,0,0-31.064-2.106.75.75,0,0,0,.583,1.383,33.173,33.173,0,0,1,29.715,2.012A.75.75,0,0,0,81.885,35.093Z"/><path d="M46.115,92.907a.75.75,0,0,0,.262,1.028,34.675,34.675,0,0,0,31.064,2.106.75.75,0,1,0-.583-1.383,33.173,33.173,0,0,1-29.715-2.012A.75.75,0,0,0,46.115,92.907Z"/><path d="M64,126.75a62.435,62.435,0,0,0,34.18-10.142.75.75,0,1,0-.82-1.255A61.258,61.258,0,0,1,5.417,46.091a.75.75,0,0,0-1.434-.442A62.779,62.779,0,0,0,64,126.75Z"/><path d="M64,1.25A62.435,62.435,0,0,0,29.82,11.392a.75.75,0,1,0,.82,1.255,61.258,61.258,0,0,1,91.943,69.262.75.75,0,0,0,1.434.442A62.779,62.779,0,0,0,64,1.25Z"/></g></g></svg>