<svg xmlns="http://www.w3.org/2000/svg" xmlns:xlink="http://www.w3.org/1999/xlink" version="1.1" x="0px" y="0px" viewBox="0 0 100 100" style="enable-background:new 0 0 100 100;" xml:space="preserve"><g><rect x="71.8" y="38.9" width="11.2" height="8.1"/><rect x="35.2" y="64.2" width="10.2" height="9.1"/><rect x="69.8" y="56.1" width="13.2" height="10.2"/><rect x="53.5" y="64.2" width="4.1" height="9.2"/><circle cx="29.2" cy="55.8" r="1.5"/><path d="M67.8,54.1H81V49H69.8V36.9H81v-7.2c0-1.7-1.4-3-3-3H20c-1.7,0-3,1.4-3,3v38.6c0,1.7,1.4,3,3,3v2h2v-2h2v2h2v-2h2v2h2v-2   h3.2v-9.1h14.2v9.1h4.1v-9.1h8.1v9.1h18.3c1.7,0,3-1.4,3-3H67.8V54.1z M20,39.5h3v3h-3V39.5z M20,44.5h4v2h-2v2h2v2h-2v2.1h2v2h-2   v2.1h2v2.1h-4V44.5z M22.1,68.3c-1.1,0-2-0.9-2-2c0-1.1,0.9-2,2-2c1.1,0,2,0.9,2,2C24.1,67.4,23.2,68.3,22.1,68.3z M22.1,33.8   c-1.1,0-2-0.9-2-2c0-1.1,0.9-2,2-2c1.1,0,2,0.9,2,2C24.1,32.8,23.2,33.8,22.1,33.8z M47.9,29.7h2v1h-2V29.7z M47.9,32.7h2v1h-2   V32.7z M43.9,29.7h2v1h-2V29.7z M27.9,29.7h2v1h-2V29.7z M27.9,32.7h2v1h-2V32.7z M27.2,48.7h2v-2h-2v-2.1h2v-2h-2v-2.1h2v-2h-2   v-1.9h4v14h-4V48.7z M32.2,58.8h-6.1v-6.1h6.1V58.8z M33.9,33.7h-2v-1h2V33.7z M33.9,30.7h-2v-1h2V30.7z M37.9,33.7h-2v-1h2V33.7z    M37.9,30.7h-2v-1h2V30.7z M41.9,33.7h-2v-1h2V33.7z M41.9,30.7h-2v-1h2V30.7z M43.9,32.7h2v1h-2V32.7z M53.6,50.6h-9.1v-7.1l2-2   h7.1V50.6z M53.9,33.7h-2v-1h2V33.7z M53.9,30.7h-2v-1h2V30.7z M57.9,33.7h-2v-1h2V33.7z M57.9,30.7h-2v-1h2V30.7z M63.7,68.3   c-1.1,0-2-0.9-2-2c0-1.1,0.9-2,2-2c1.1,0,2,0.9,2,2C65.7,67.4,64.8,68.3,63.7,68.3z M63.7,33.8c-1.1,0-2-0.9-2-2c0-1.1,0.9-2,2-2   c1.1,0,2,0.9,2,2C65.7,32.8,64.8,33.8,63.7,33.8z"/></g></svg>