<svg xmlns="http://www.w3.org/2000/svg" version="1.1" viewBox="-5.0 -5.0 110.0 110.0">
 <path d="m61.879 33.879c2.793-2.793 7.0352 1.4492 4.2422 4.2422l-11.879 11.879 11.879 11.879c2.793 2.793-1.4492 7.0352-4.2422 4.2422l-11.879-11.879-11.879 11.879c-2.793 2.793-7.0352-1.4492-4.2422-4.2422l11.879-11.879-11.879-11.879c-2.793-2.793 1.4492-7.0352 4.2422-4.2422l11.879 11.879zm-29.379-28.879c-0.76953 0-1.5352 0.29297-2.1211 0.87891l-24.5 24.5c-0.54297 0.54297-0.87891 1.293-0.87891 2.1211v35c0 0.76953 0.29297 1.5352 0.87891 2.1211l24.5 24.5c0.54297 0.54297 1.293 0.87891 2.1211 0.87891h35c0.76953 0 1.5352-0.29297 2.1211-0.87891l24.5-24.5c0.54297-0.54297 0.87891-1.293 0.87891-2.1211v-35c0-0.76953-0.29297-1.5352-0.87891-2.1211l-24.5-24.5c-0.54297-0.54297-1.293-0.87891-2.1211-0.87891zm33.758 6h-32.516l-22.742 22.742v32.516l22.742 22.742h32.516l22.742-22.742v-32.516z" fill-rule="evenodd"/>
</svg>