<svg xmlns:inkscape="http://www.inkscape.org/namespaces/inkscape" xmlns:sodipodi="http://sodipodi.sourceforge.net/DTD/sodipodi-0.dtd" xmlns="http://www.w3.org/2000/svg" xmlns:svg="http://www.w3.org/2000/svg" viewBox="0 0 48 48" version="1.1" xml:space="preserve" x="0px" y="0px"><g><g transform="translate(-60)"><path style="color:#000000;" d="M 64 13 A 1.0001 1.0001 0 0 0 63 14 L 63 32 A 1.0001 1.0001 0 0 0 64 33 L 79 33 L 79 37 A 1 1 0 0 0 80 38 A 1 1 0 0 0 81 37 L 81 33 L 82 33 L 82 37 A 1 1 0 0 0 83 38 A 1 1 0 0 0 84 37 L 84 33 L 85 33 L 85 37 A 1 1 0 0 0 86 38 A 1 1 0 0 0 87 37 L 87 33 L 88 33 L 88 37 A 1 1 0 0 0 89 38 A 1 1 0 0 0 90 37 L 90 33 L 105 33 A 1.0001 1.0001 0 0 0 106 32 L 106 14 A 1.0001 1.0001 0 0 0 105 13 L 64 13 z M 65 14 A 1 1 0 0 1 66 15 A 1 1 0 0 1 65 16 A 1 1 0 0 1 64 15 A 1 1 0 0 1 65 14 z M 81 14 L 88 14 C 88.822502 14 89.5 14.677498 89.5 15.5 C 89.5 16.322502 88.822502 17 88 17 L 81 17 C 80.177498 17 79.5 16.322502 79.5 15.5 C 79.5 14.677498 80.177498 14 81 14 z M 104 14 A 1 1 0 0 1 105 15 A 1 1 0 0 1 104 16 A 1 1 0 0 1 103 15 A 1 1 0 0 1 104 14 z M 73 15.5 C 77.126204 15.5 80.5 18.873796 80.5 23 C 80.5 27.126204 77.126204 30.5 73 30.5 C 68.873796 30.5 65.5 27.126204 65.5 23 C 65.5 18.873796 68.873796 15.5 73 15.5 z M 96 15.5 C 100.12621 15.5 103.5 18.873796 103.5 23 C 103.5 27.126204 100.12621 30.5 96 30.5 C 91.873796 30.5 88.5 27.126204 88.5 23 C 88.5 18.873796 91.873796 15.5 96 15.5 z M 73 16.5 C 69.417948 16.5 66.5 19.417948 66.5 23 C 66.5 26.582052 69.417948 29.5 73 29.5 C 76.582052 29.5 79.5 26.582052 79.5 23 C 79.5 19.417948 76.582052 16.5 73 16.5 z M 96 16.5 C 92.417948 16.5 89.5 19.417948 89.5 23 C 89.5 26.582052 92.417948 29.5 96 29.5 C 99.582054 29.5 102.5 26.582052 102.5 23 C 102.5 19.417948 99.582054 16.5 96 16.5 z M 73 20 C 74.674615 20 76 21.325386 76 23 C 76 24.674614 74.674615 26 73 26 C 71.325386 26 70 24.674614 70 23 C 70 21.325386 71.325386 20 73 20 z M 96 20 C 97.674616 20 99 21.325386 99 23 C 99 24.674614 97.674616 26 96 26 C 94.325386 26 93 24.674614 93 23 C 93 21.325386 94.325386 20 96 20 z M 65 30 A 1 1 0 0 1 66 31 A 1 1 0 0 1 65 32 A 1 1 0 0 1 64 31 A 1 1 0 0 1 65 30 z M 104 30 A 1 1 0 0 1 105 31 A 1 1 0 0 1 104 32 A 1 1 0 0 1 103 31 A 1 1 0 0 1 104 30 z " fill="#000000" fill-opacity="1" stroke="none"/></g></g></svg>