<svg xmlns:inkscape="http://www.inkscape.org/namespaces/inkscape" xmlns:sodipodi="http://sodipodi.sourceforge.net/DTD/sodipodi-0.dtd" xmlns="http://www.w3.org/2000/svg" xmlns:svg="http://www.w3.org/2000/svg" viewBox="0 0 48 48" version="1.1" xml:space="preserve" x="0px" y="0px"><g><path style="color:#000000;" d="M 24,6 C 19.713755,6 15.822692,6.9138352 12.921875,8.4609375 10.021058,10.008039 8,12.284204 8,15 v 14 c 0,2.230206 1.3990965,4.210804 3.529297,5.691406 2.1302,1.480604 5.04424,2.539077 8.447265,3.025391 0.776301,0.118785 1.152908,-0.386704 1.140626,-1.109375 0.151353,0.01746 0.303119,0.03414 0.455078,0.04883 0.0474,0.941419 0.232481,1.720286 0.345703,2.357422 0.22804,1.283252 0.359409,1.957857 -1.199219,3.699219 -0.368391,0.411509 -0.333413,1.04375 0.07813,1.412109 0.411509,0.368391 1.04375,0.333413 1.412109,-0.07813 1.85629,-2.073919 1.938578,-3.914958 1.677735,-5.382813 -0.117169,-0.659343 -0.262026,-1.251003 -0.320313,-1.896484 0.261541,0.0045 0.521635,0.0056 0.783203,0.002 0.273688,1.077288 0.803919,1.976007 1.265625,2.703125 0.447143,0.704182 0.807339,1.294849 0.939454,1.791016 0.132115,0.496166 0.131268,0.902686 -0.28125,1.617187 -0.275737,0.477909 -0.112297,1.088844 0.365234,1.365235 0.478344,0.277066 1.090742,0.113468 1.367187,-0.365235 0.628093,-1.087887 0.729114,-2.206347 0.482422,-3.132812 -0.246691,-0.926465 -0.746335,-1.655965 -1.185547,-2.347656 -0.385197,-0.606628 -0.74132,-1.147351 -0.958984,-1.736329 0.180047,-0.01678 0.35985,-0.03597 0.539062,-0.05664 0.04735,0.8112 0.603077,1.209589 1.140626,1.109375 3.403026,-0.486314 6.317065,-1.544787 8.447265,-3.025391 C 38.600903,33.210804 40,31.230206 40,29 V 15 C 40.000119,14.96281 39.9982,14.92564 39.9941,14.888672 39.939297,12.222418 37.938876,9.9866708 35.078125,8.4609375 32.177308,6.9138352 28.286245,6 24,6 Z m 0,2 c 3.99801,0 7.608614,0.8762873 10.136719,2.224609 C 36.664823,11.572932 38,13.297527 38,15 38,16.702473 36.664823,18.427068 34.136719,19.775391 31.608614,21.123712 27.99801,22 24,22 20.00199,22 16.391386,21.123712 13.863281,19.775391 11.335177,18.427068 10,16.702473 10,15 10,13.297527 11.335177,11.572932 13.863281,10.224609 16.391386,8.8762873 20.00199,8 24,8 Z m 0,0.8046875 c -0.552285,0 -1,0.4477153 -1,1 v 0.2519535 c -0.846699,0.09408 -1.61999,0.307065 -2.275391,0.634765 C 19.818774,11.144325 19,11.907277 19,13 v 3 c 0,0.712926 0.386585,1.327806 0.880859,1.755859 0.494276,0.428055 1.117855,0.728517 1.841797,0.9375 1.447885,0.417969 3.106803,0.417969 4.554688,0 0.723942,-0.208983 1.347521,-0.509445 1.841797,-0.9375 C 28.613415,17.327806 29,16.712926 29,16 v -3 c 4.6e-5,-0.02999 -0.0013,-0.05997 -0.0039,-0.08984 C 28.95223,11.865807 28.155954,11.13169 27.275397,10.69141 26.61999,10.363706 25.846699,10.150721 25,10.056641 V 9.8046875 c 0,-0.5522847 -0.447715,-1 -1,-1 z m -1,3.2714845 v 0.220703 c 0,0.552285 0.447715,1 1,1 0.552285,0 1,-0.447715 1,-1 v -0.220703 c 0.554335,0.08434 1.03464,0.231187 1.380859,0.404297 C 26.922736,12.751406 27,12.988155 27,13 27,13.01184 26.92274,13.248594 26.380859,13.519531 25.838983,13.79047 24.969458,14 24,14 23.030542,14 22.161017,13.79047 21.619141,13.519531 21.077264,13.248594 21,13.011845 21,13 21,12.98816 21.07726,12.751406 21.619141,12.480469 21.96536,12.307359 22.445665,12.16051 23,12.076172 Z m -2,3.359375 C 21.855216,15.805299 22.882836,16 24,16 c 1.117164,0 2.144784,-0.194701 3,-0.564453 V 16 c 0,0.0016 0.0049,0.07412 -0.191406,0.244141 -0.196323,0.170019 -0.572277,0.379063 -1.085938,0.527343 -1.027319,0.296562 -2.417993,0.296562 -3.445312,0 C 21.763683,16.623204 21.387729,16.41416 21.191406,16.244141 20.995083,16.07412 21,16.001603 21,16 Z m -11,3.976562 c 0.795942,0.80785 1.790706,1.523664 2.921875,2.126953 C 15.822692,23.086165 19.713755,24 24,24 28.286245,24 32.177308,23.086165 35.078125,21.539062 36.209294,20.935773 37.204058,20.219959 38,19.412109 V 29 c 0,1.390632 -0.880711,2.805231 -2.669922,4.048828 -1.568585,1.090251 -3.7962,1.989092 -6.447266,2.498047 v -2.777344 c 0,-0.665204 -0.60633,-1.100957 -1.142743,-1.031325 -2.444099,0.349278 -5.030287,0.348732 -7.474609,0 -0.742822,-0.113274 -1.148518,0.39312 -1.148518,0.988291 V 35.54681 C 16.466123,35.03792 14.238507,34.139079 12.669922,33.048828 10.880711,31.805231 10,30.390632 10,29 Z m 11.117188,14.441407 c 0.252025,0.02542 0.504408,0.04966 0.757812,0.06836 -0.06855,0.252709 -0.128066,0.498761 -0.171875,0.736328 -0.19627,-0.01944 -0.391122,-0.04194 -0.585937,-0.06641 z m 5.765624,0 v 0.738281 c -0.224637,0.02821 -0.449244,0.05464 -0.675781,0.07617 0.047,-0.233746 0.115146,-0.481577 0.207031,-0.746094 0.0027,-0.0084 0.0053,-0.01689 0.0078,-0.02539 0.154175,-0.013 0.307305,-0.02748 0.460937,-0.04297 z m -2.568359,0.144531 c -0.05947,0.263961 -0.09953,0.521468 -0.123047,0.771484 -0.158482,0.0013 -0.316143,0.0019 -0.474609,0 0.0573,-0.241933 0.130734,-0.497586 0.222656,-0.769531 0.125238,2.62e-4 0.249779,-5.95e-4 0.375,-0.002 z" fill="#000000" stroke-linecap="round" stroke-linejoin="round"/></g></svg>