<svg xmlns="http://www.w3.org/2000/svg" version="1.1" viewBox="-5.0 -5.0 110.0 110.0">
 <path d="m84.375 12.5h-68.75c-5.168 0-9.375 4.207-9.375 9.375v25c0 5.168 4.207 9.375 9.375 9.375h25v12.5h-9.9414c-2.9648 0-5.543 2.1133-6.0586 4.7383l-1.9453 6.5352c-0.37109 1.8438 0.10156 3.7344 1.293 5.1875 1.1992 1.457 2.9609 2.2891 4.8398 2.2891h42.375c1.8789 0 3.6406-0.83203 4.8359-2.2891 1.1914-1.4531 1.6641-3.3438 1.2227-5.4727l-1.8047-5.9688c-0.58594-2.9062-3.1602-5.0195-6.125-5.0195h-9.9414v-12.5h25c5.168 0 9.375-4.207 9.375-9.375v-25c0-5.168-4.207-9.375-9.375-9.375zm-18.75 21.875c0 8.6133-7.0117 15.625-15.625 15.625s-15.625-7.0117-15.625-15.625 7.0117-15.625 15.625-15.625 15.625 7.0117 15.625 15.625zm-53.125 12.5v-25c0-1.7227 1.4023-3.125 3.125-3.125h19.098c-4.0664 3.9727-6.5977 9.5078-6.5977 15.625s2.5312 11.652 6.5977 15.625h-19.098c-1.7227 0-3.125-1.4023-3.125-3.125zm56.883 28.41 1.8125 5.9648-42.453 0.28516 1.9414-6.5352zm-16.258-6.5352h-6.25v-12.5h6.25zm34.375-21.875c0 1.7227-1.4023 3.125-3.125 3.125h-19.098c4.0664-3.9727 6.5977-9.5078 6.5977-15.625s-2.5312-11.652-6.5977-15.625h19.098c1.7227 0 3.125 1.4023 3.125 3.125zm-37.5-3.125c5.168 0 9.375-4.207 9.375-9.375s-4.207-9.375-9.375-9.375-9.375 4.207-9.375 9.375 4.207 9.375 9.375 9.375zm0-12.5c1.7227 0 3.125 1.4023 3.125 3.125s-1.4023 3.125-3.125 3.125-3.125-1.4023-3.125-3.125 1.4023-3.125 3.125-3.125z"/>
</svg>