<svg xmlns="http://www.w3.org/2000/svg" version="1.1" viewBox="-5.0 -10.0 110.0 110.0" fill="white">
 <path d="m56.133 79.715v3.5352c4.2031 1.2383 9.1406-0.097656 11.027-0.71094l-1.2344-4.4102c-1.4492 1-3.2031 1.5859-5.0938 1.5859z"/>
 <path d="m34.074 78.129-1.2344 4.4102c1.8867 0.60938 6.8359 1.9453 11.027 0.71094v-3.5352h-4.6992c-1.8906 0-3.6445-0.58984-5.0938-1.5859z"/>
 <path d="m33.727 53.141h-2.8438c-0.58594 0-1.1602-0.0625-1.7188-0.15625l-6.3828 4.375c-0.097656 0.78906-0.20312 2.8086 0.91797 4.4062 0.79688 1.1406 2.0898 1.8789 3.8438 2.207l2.6133-2.5312v-1.1328c0-2.9258 1.4062-5.5195 3.5703-7.168z"/>
 <path d="m30.883 51.297h38.738c3.6289 0 8.3047-4.3438 8.3047-8.3047v-22.133c0-4.5781-3.7266-8.3047-8.3047-8.3047h-18.309v-3.793c0.80469-0.46094 1.3516-1.3125 1.3516-2.3086 0-1.4727-1.1953-2.6641-2.6641-2.6641-1.4727 0-2.6641 1.1953-2.6641 2.6641 0 0.99219 0.54687 1.8477 1.3516 2.3086v3.793h-17.805c-4.5781 0-8.3047 3.7266-8.3047 8.3047v22.129c0 3.8516 4.6289 8.3086 8.3047 8.3086zm-5.3828-28.871c0-4.0703 3.3125-7.3828 7.3828-7.3828h34.742c4.0703 0 7.3828 3.3125 7.3828 7.3828v19c0 4.0703-3.3125 7.3828-7.3828 7.3828h-34.742c-4.0703 0-7.3828-3.3125-7.3828-7.3828z"/>
 <path d="m72.453 63.922c1.7578-0.32812 3.0469-1.0703 3.8438-2.207 1.1211-1.5977 1.0156-3.6133 0.91797-4.4062l-6.2266-4.2695c-0.44922 0.0625-0.90234 0.10156-1.3672 0.10156h-3.3477c2.1641 1.6484 3.5703 4.2422 3.5703 7.1641v1.082z"/>
 <path d="m85.508 33.031c0-3.4688-2.4648-6.3672-5.7344-7.0391v14.082c3.2695-0.67578 5.7344-3.5742 5.7344-7.043z"/>
 <path d="m20.734 40.152v-14.238c-3.5156 0.46875-6.2422 3.4766-6.2422 7.1172 0 3.6445 2.7227 6.6562 6.2422 7.1211z"/>
 <path d="m65.961 89.246c-2.1953-0.046875-3.8672 0.57812-5.0547 1.8047-1.6172 1.6719-1.9297 4.0859-1.9844 5.1602h14.008c-0.089844-1.2148-0.46875-3.4453-1.9648-5.0352-1.1719-1.2539-2.8555-1.9023-5.0039-1.9297z"/>
 <path d="m65.984 87.402c1.5 0.019531 2.8242 0.30469 3.9766 0.83203 0.29687-2.0586-1.0352-3.4414-1.8359-4.0664-1.2266 0.42969-4.5078 1.4414-8.125 1.4414-1.543 0-3.1445-0.19922-4.6758-0.69141-2.4297 1.4453-2.5898 7.418-2.4102 10.234l4.1719 0.89844c0.078124-1.3711 0.49609-4.2109 2.4961-6.2812 1.5508-1.6055 3.707-2.3828 6.4023-2.3672z"/>
 <path d="m83.266 75.16c-1.1211 0.70703-2.2266 1.1641-3.2656 1.3633 0.71875 1.4805 1.7109 2.5078 2.9688 3.0391 1.8594 0.79297 3.8984 0.38281 5 0.042969l-0.9375-2.3516c-1.8672 0.17188-3.0938-0.96875-3.7656-2.0938z"/>
 <path d="m87.43 63.16c-3.0117-5.1172-6.4609-5.6523-8.3281-5.4883 0.074219 1.2344-0.035156 3.3008-1.2812 5.0859-0.98437 1.4141-2.4766 2.3672-4.4336 2.8438-0.023438 1.4922 0.25781 5.3672 3.4883 8.4609 1.6484 1.5781 4.4375 0.39844 6.5-1.2305 3.1953-2.5312 5.6562-6.9492 4.0547-9.6719z"/>
 <path d="m92.48 66.824c-0.75391-1.1328-1.9492-1.6367-2.7031-1.8516 0.03125 1.1289-0.22656 2.3047-0.70312 3.457h0.007812c1.1562 0.47656 1.9297 1.8359 2.2734 2.5742l1.6367 0.36328c0.40625-1.8906 0.23437-3.418-0.51172-4.543z"/>
 <path d="m22.176 62.812c-1.2422-1.7852-1.3555-3.8516-1.2812-5.0859-1.8633-0.16406-5.3164 0.36719-8.3281 5.4883-1.6016 2.7227 0.85938 7.1406 4.0547 9.6719 2.0664 1.6289 4.8555 2.8086 6.5039 1.2266 3.25-3.1094 3.5195-6.9688 3.4922-8.457-1.9609-0.47656-3.4531-1.4297-4.4414-2.8438z"/>
 <path d="m7.5195 66.875c-0.75 1.125-0.92188 2.6523-0.51172 4.5469l1.6367-0.36328c0.34766-0.73828 1.1172-2.0977 2.2734-2.5742h0.007812c-0.48047-1.1523-0.73438-2.3281-0.70312-3.4609-0.75391 0.21875-1.9492 0.72266-2.7031 1.8516z"/>
 <path d="m12.969 77.305-0.9375 2.3516c1.1094 0.33594 3.1562 0.75 5.0078-0.042969 1.25-0.53516 2.2383-1.5586 2.957-3.0352-1.0391-0.19922-2.1445-0.65625-3.2656-1.3633-0.66797 1.125-1.8945 2.2617-3.7617 2.0898z"/>
 <path d="m44.68 84.914c-1.5312 0.49219-3.1367 0.69141-4.6797 0.69141-3.6133 0-6.8906-1.0078-8.1211-1.4375-0.79688 0.62891-2.1289 2.0195-1.8398 4.0664 1.1484-0.52734 2.4727-0.8125 3.9766-0.83203 2.6602-0.039063 4.8516 0.76172 6.4023 2.3672 2 2.0703 2.418 4.9062 2.4961 6.2812l4.1719-0.89844c0.19531-2.918 0.042968-8.793-2.4062-10.238z"/>
 <path d="m34.039 89.246c-2.1484 0.027344-3.8359 0.67578-5.0078 1.9297-1.4922 1.5898-1.875 3.8203-1.9648 5.0352h14.008c-0.058594-1.0781-0.375-3.5078-1.9922-5.168-1.1797-1.2227-2.8555-1.8359-5.043-1.7969z"/>
 <path d="m63.324 39.895c3.8672 0 7.0078-3.1367 7.0078-7.0039s-3.1367-7.0078-7.0078-7.0078c-3.8672 0-7.0039 3.1367-7.0039 7.0078 0 3.8672 3.1328 7.0039 7.0039 7.0039zm-2.0312-12.652c1.3594 0 2.4688 1.1055 2.4688 2.4648 0 1.3633-1.1055 2.4648-2.4688 2.4648-1.3594 0-2.4648-1.1016-2.4648-2.4648 0-1.3594 1.1016-2.4648 2.4648-2.4648z"/>
 <path d="m37.074 39.895c3.8672 0 7.0039-3.1367 7.0039-7.0039s-3.1367-7.0078-7.0039-7.0078c-3.8711 0-7.0078 3.1367-7.0078 7.0078 0.003906 3.8672 3.1367 7.0039 7.0078 7.0039zm-2.0312-12.652c1.3594 0 2.4688 1.1055 2.4688 2.4648 0 1.3633-1.1055 2.4648-2.4688 2.4648s-2.4688-1.1016-2.4688-2.4648c0.003906-1.3594 1.1055-2.4648 2.4688-2.4648z"/>
 <path d="m39.621 71.008h21.262v-11.391h-21.262zm10.523-8.2852h8.6289v1.8438h-8.6289zm0 3.7539h8.6289v1.8438h-8.6289zm-5.3008-4.1758c1.6602 0 3.0117 1.3516 3.0117 3.0117s-1.3516 3.0117-3.0117 3.0117-3.0117-1.3516-3.0117-3.0117c-0.003906-1.6641 1.3477-3.0117 3.0117-3.0117z"/>
 <path d="m46.008 65.312c0 1.5547-2.332 1.5547-2.332 0s2.332-1.5547 2.332 0"/>
 <path d="m67.996 60.305c0-3.9531-3.2148-7.1641-7.1641-7.1641h-21.664c-3.9492 0-7.1641 3.2148-7.1641 7.1641v10.398c0 3.9492 3.2148 7.1641 7.1641 7.1641h21.664c3.9492 0 7.1641-3.2148 7.1641-7.1641zm-5.2656 11.625c0 0.51172-0.41406 0.92187-0.92188 0.92187l-23.109 0.003907c-0.50781 0-0.92188-0.41406-0.92188-0.92188l-0.003906-13.242c0-0.50781 0.41406-0.92188 0.92187-0.92188h23.109c0.51172 0 0.92187 0.41406 0.92187 0.92188z"/>
</svg>